<?xml version="1.0" standalone="no"?>
<!DOCTYPE svg PUBLIC "-//W3C//DTD SVG 20010904//EN"
 "http://www.w3.org/TR/2001/REC-SVG-20010904/DTD/svg10.dtd">
<svg version="1.0" xmlns="http://www.w3.org/2000/svg"
 width="1442.000000pt" height="1442.000000pt" viewBox="0 0 1442.000000 1442.000000"
 preserveAspectRatio="xMidYMid meet">

<g transform="translate(0.000000,1442.000000) scale(0.100000,-0.100000)"
fill="#000000" stroke="none">
<path d="M4688 13367 l-1807 -1042 2 -2490 2 -2490 185 -106 c102 -58 406
-232 675 -387 l490 -281 3 2487 2 2487 873 497 c479 274 989 564 1132 645
l260 148 3 788 c1 433 -1 787 -5 787 -5 0 -821 -470 -1815 -1043z"/>
<path d="M7930 12430 l0 -1980 -710 0 -710 0 0 735 c0 582 -3 735 -12 734 -7
0 -312 -177 -678 -393 l-665 -392 -3 -2540 -2 -2541 675 -396 c371 -218 677
-397 680 -397 3 0 5 891 5 1980 l0 1980 710 0 710 0 0 -735 c0 -404 4 -735 8
-735 5 0 310 177 678 394 l669 394 3 2549 2 2550 -674 386 c-370 213 -676 387
-680 387 -3 0 -6 -891 -6 -1980z"/>
<path d="M10180 10613 l0 -2488 -1123 -645 -1122 -645 -3 -787 c-1 -434 0
-788 3 -788 5 0 189 105 350 200 44 26 154 90 245 142 91 53 289 168 440 255
151 88 361 210 465 270 105 61 417 242 695 403 278 162 566 329 640 372 74 42
277 160 450 260 l315 183 2 2490 2 2490 -611 350 c-336 193 -642 367 -680 388
l-68 39 0 -2489z"/>
<path d="M5680 3491 l-205 -36 -3 -1297 -2 -1298 230 0 230 0 0 639 0 639 118
42 c181 64 279 90 342 90 76 0 105 -12 130 -52 19 -32 20 -51 20 -705 l0 -673
43 5 c56 7 380 35 401 35 15 0 16 64 16 739 0 609 -3 753 -15 816 -54 285
-235 371 -615 295 -109 -22 -283 -78 -376 -120 l-64 -29 0 475 0 474 -22 -1
c-13 -1 -115 -17 -228 -38z"/>
<path d="M7360 3220 l0 -270 230 0 230 0 0 270 0 270 -230 0 -230 0 0 -270z"/>
<path d="M8757 3374 c-200 -31 -334 -91 -443 -198 -80 -80 -123 -155 -157
-275 -20 -73 -21 -98 -25 -711 -2 -404 0 -668 7 -725 32 -272 172 -449 423
-536 147 -50 248 -63 498 -62 238 0 397 15 563 54 l88 21 -6 31 c-3 18 -17
106 -30 196 -14 91 -27 167 -30 169 -3 3 -76 -7 -162 -21 -257 -43 -327 -49
-481 -45 -187 6 -264 34 -324 117 -60 84 -61 97 -66 668 -2 309 1 563 7 623
22 224 104 295 357 307 130 7 287 -8 509 -47 88 -15 161 -27 162 -26 7 7 61
392 55 398 -9 9 -292 55 -412 68 -133 14 -428 11 -533 -6z"/>
<path d="M0 2095 l0 -1255 240 0 240 0 0 530 0 530 465 0 465 0 0 -530 0 -530
240 0 240 0 0 1255 0 1255 -240 0 -240 0 0 -515 0 -515 -465 0 -465 0 0 515 0
515 -240 0 -240 0 0 -1255z"/>
<path d="M2646 2710 c-126 -11 -267 -34 -343 -56 -42 -11 -53 -19 -53 -35 0
-23 51 -332 55 -337 2 -2 61 7 132 19 107 20 164 23 348 24 l220 0 60 -30 c47
-24 65 -40 85 -75 23 -42 25 -57 28 -202 l4 -156 -313 -4 c-290 -4 -319 -6
-381 -26 -197 -65 -278 -205 -278 -481 0 -144 16 -223 60 -311 93 -184 267
-261 524 -230 156 19 267 53 369 114 31 19 58 31 61 28 2 -4 11 -31 20 -59
l18 -53 190 0 191 0 -6 588 c-6 615 -15 797 -42 902 -52 199 -180 314 -405
360 -113 24 -380 33 -544 20z m510 -1247 c-3 -32 -8 -90 -12 -129 l-6 -70 -86
-33 c-225 -83 -354 -83 -416 2 -29 39 -35 151 -11 198 40 76 81 87 333 88
l204 1 -6 -57z"/>
<path d="M4425 2710 c-298 -32 -440 -131 -490 -342 -20 -85 -20 -331 0 -416
43 -183 143 -255 493 -357 166 -49 233 -78 272 -120 21 -22 25 -38 28 -98 4
-86 -15 -131 -68 -162 -74 -42 -455 -27 -622 25 -34 11 -68 20 -74 20 -11 0
-91 -347 -81 -356 14 -14 396 -83 519 -94 296 -27 544 27 660 144 89 90 107
183 90 476 -12 213 -28 265 -101 333 -77 72 -145 100 -410 168 -215 56 -262
75 -283 119 -22 44 -24 150 -3 189 8 16 31 37 52 47 34 17 61 19 238 18 145 0
228 -6 300 -19 55 -9 111 -20 125 -22 l26 -5 27 179 c15 98 27 183 27 190 0
17 -114 50 -235 68 -123 19 -382 27 -490 15z"/>
<path d="M12576 2694 c-95 -32 -220 -93 -314 -153 -43 -28 -81 -51 -84 -51 -3
0 -14 43 -24 95 l-18 95 -193 0 -193 0 0 -920 0 -920 230 0 230 0 0 588 0 587
188 101 c103 56 215 114 250 129 40 18 62 34 62 44 -1 30 -57 421 -61 425 -2
2 -35 -7 -73 -20z"/>
<path d="M13735 2710 c-129 -20 -292 -83 -392 -151 -23 -16 -46 -29 -51 -29
-5 0 -21 29 -37 65 l-27 65 -189 0 -189 0 0 -1325 c0 -1054 3 -1325 13 -1324
6 0 109 17 227 38 l215 37 3 378 c2 353 3 377 20 372 109 -32 417 -61 541 -51
278 23 444 148 520 388 l26 82 0 500 c0 493 0 501 -23 580 -57 196 -163 310
-331 357 -78 22 -242 31 -326 18z m103 -416 c20 -8 49 -27 65 -42 53 -50 57
-89 57 -501 0 -221 -4 -391 -10 -412 -16 -57 -51 -102 -100 -127 -72 -36 -254
-30 -452 14 l-68 16 0 458 0 458 33 28 c39 33 157 89 229 108 73 20 199 20
246 0z"/>
<path d="M10486 2690 c-349 -40 -556 -204 -623 -495 -16 -70 -18 -126 -18
-440 0 -320 2 -368 19 -435 44 -175 125 -294 261 -386 146 -100 419 -150 671
-125 304 31 494 140 593 342 81 165 85 194 86 609 0 352 -1 368 -23 445 -75
259 -247 410 -536 469 -94 20 -323 28 -430 16z m361 -409 c66 -29 114 -81 144
-157 23 -58 24 -66 24 -379 0 -288 -2 -325 -19 -374 -43 -124 -150 -181 -341
-181 -174 0 -262 40 -317 142 -22 42 -23 51 -26 388 -2 238 0 357 8 385 25 88
90 154 183 187 78 28 271 21 344 -11z"/>
<path d="M7360 1760 l0 -920 230 0 230 0 0 920 0 920 -230 0 -230 0 0 -920z"/>
</g>
</svg>
