<?xml version="1.0" standalone="no"?>
<!DOCTYPE svg PUBLIC "-//W3C//DTD SVG 20010904//EN"
 "http://www.w3.org/TR/2001/REC-SVG-20010904/DTD/svg10.dtd">
<svg version="1.0" xmlns="http://www.w3.org/2000/svg"
 width="452.000000pt" height="452.000000pt" viewBox="0 0 452.000000 452.000000"
 preserveAspectRatio="xMidYMid meet">

<g transform="translate(0.000000,452.000000) scale(0.100000,-0.100000)"
fill="#000000" stroke="none">
<path d="M172 4443 c-33 -6 -88 -66 -96 -103 -3 -18 -6 -229 -6 -469 0 -480 0
-479 63 -525 26 -19 45 -21 219 -24 l190 -3 210 -175 c184 -153 214 -175 240
-172 19 2 38 13 50 29 20 26 20 27 -10 173 l-29 146 111 0 c127 0 166 13 204
69 l23 35 -3 467 c-3 455 -4 468 -24 496 -47 64 -36 63 -604 62 -283 -1 -525
-4 -538 -6z m1028 -558 l0 -425 -155 0 c-216 0 -219 -3 -170 -218 5 -18 -21
-1 -112 75 -192 161 -147 143 -364 143 l-189 0 0 425 0 425 495 0 495 0 0
-425z"/>
<path d="M753 3958 l-173 -173 -50 50 -50 50 -50 -50 -50 -50 84 -84 c123
-122 102 -129 357 125 l209 209 -47 47 c-26 27 -50 48 -53 48 -3 0 -83 -78
-177 -172z"/>
<path d="M3261 4433 c-19 -10 -44 -31 -55 -46 -20 -28 -21 -41 -24 -496 l-3
-467 23 -35 c38 -56 77 -69 204 -69 l111 0 -29 -146 c-30 -146 -30 -147 -10
-173 12 -16 31 -27 49 -29 27 -3 58 20 242 172 l211 176 178 0 c195 0 225 7
266 63 21 28 21 39 21 500 0 440 -1 474 -18 499 -45 66 -18 63 -602 66 -490 2
-533 1 -564 -15z m1047 -550 l2 -423 -192 0 -193 0 -137 -115 c-76 -63 -139
-115 -141 -115 -3 0 2 28 9 63 19 88 17 124 -6 147 -18 18 -33 20 -175 20
l-155 0 0 425 0 425 493 -2 492 -3 3 -422z"/>
<path d="M3607 4082 l-47 -48 75 -74 75 -75 -75 -75 -75 -76 48 -47 c26 -26
52 -47 57 -47 5 0 41 32 80 70 l71 70 69 -70 c38 -38 74 -70 80 -70 13 0 95
82 95 96 0 5 -32 41 -70 79 l-70 69 72 73 73 73 -53 52 -52 53 -73 -73 -73
-73 -69 71 c-38 38 -74 70 -80 70 -6 0 -32 -22 -58 -48z"/>
<path d="M940 2660 c-20 -20 -20 -33 -20 -1012 l0 -992 -140 -246 c-82 -145
-140 -257 -140 -272 0 -17 10 -34 26 -47 l27 -21 1567 0 1567 0 27 21 c16 13
26 30 26 47 0 15 -58 127 -140 272 l-140 246 0 992 c0 979 0 992 -20 1012 -20
20 -33 20 -1320 20 -1287 0 -1300 0 -1320 -20z m2520 -1035 l0 -915 -1200 0
-1200 0 0 915 0 915 1200 0 1200 0 0 -915z"/>
<path d="M2102 2240 c-33 -20 -62 -71 -62 -109 0 -13 -17 -29 -56 -50 -54 -29
-58 -30 -87 -15 -43 23 -102 13 -138 -22 -35 -33 -116 -168 -129 -214 -12 -43
13 -105 51 -127 27 -16 29 -22 29 -78 0 -54 -3 -63 -23 -74 -26 -14 -54 -56
-57 -86 -5 -45 3 -65 59 -162 46 -77 68 -104 94 -117 43 -20 83 -20 119 -2 25
13 32 12 83 -16 38 -20 55 -36 55 -49 0 -38 29 -89 62 -109 28 -17 50 -20 158
-20 108 0 130 3 158 20 33 20 62 71 62 109 0 13 17 29 55 49 51 28 58 29 83
16 37 -19 88 -18 124 4 33 18 147 200 149 236 3 58 -19 106 -58 127 -20 11
-23 20 -23 74 0 56 2 62 29 78 38 22 63 84 51 127 -13 46 -94 181 -129 214
-37 35 -95 45 -139 22 -31 -16 -33 -16 -87 15 -37 21 -55 37 -55 50 0 38 -29
89 -62 109 -28 17 -50 20 -158 20 -108 0 -130 -3 -158 -20z m238 -145 c0 -46
28 -84 82 -111 29 -15 69 -38 90 -51 37 -25 85 -28 144 -8 18 5 26 -3 55 -52
l35 -58 -38 -36 -38 -36 0 -118 0 -118 38 -36 38 -36 -35 -58 c-29 -49 -37
-57 -55 -52 -52 18 -101 16 -136 -4 -19 -12 -61 -34 -92 -51 -60 -31 -88 -68
-88 -115 0 -25 -1 -25 -80 -25 -79 0 -80 0 -80 25 0 47 -28 84 -88 115 -31 17
-73 39 -92 51 -35 20 -84 22 -136 4 -18 -5 -26 3 -55 52 l-35 58 38 36 38 36
0 118 0 118 -38 36 -38 36 35 58 c29 49 37 57 55 52 59 -20 107 -17 144 8 21
13 61 36 90 51 54 27 82 65 82 111 0 25 1 25 80 25 79 0 80 0 80 -25z"/>
<path d="M2206 1899 c-71 -11 -151 -70 -190 -139 -28 -49 -31 -64 -31 -135 0
-63 5 -89 22 -121 56 -105 141 -158 253 -158 112 0 197 53 253 158 17 32 22
58 22 121 0 70 -4 87 -30 134 -60 109 -170 160 -299 140z m135 -162 c70 -47
77 -153 14 -213 -109 -102 -273 8 -224 150 19 54 67 86 129 86 32 0 58 -7 81
-23z"/>
</g>
</svg>
