<?xml version="1.0" standalone="no"?>
<!DOCTYPE svg PUBLIC "-//W3C//DTD SVG 20010904//EN"
 "http://www.w3.org/TR/2001/REC-SVG-20010904/DTD/svg10.dtd">
<svg version="1.0" xmlns="http://www.w3.org/2000/svg"
 width="280.000000pt" height="96.000000pt" viewBox="0 0 280.000000 96.000000"
 preserveAspectRatio="xMidYMid meet">

<g transform="translate(0.000000,96.000000) scale(0.100000,-0.100000)"
fill="#000000" stroke="none">
<path d="M316 772 c-65 -91 -120 -170 -122 -177 -3 -7 89 -37 263 -84 147 -41
275 -76 283 -79 9 -4 6 9 -12 38 l-26 45 -177 51 c-97 28 -183 58 -192 67 -10
10 -13 24 -10 39 10 39 76 118 98 118 13 0 41 -29 85 -90 57 -78 71 -91 107
-101 23 -6 47 -14 52 -17 11 -7 8 -1 -129 204 l-101 152 -119 -166z"/>
<path d="M1014 819 c-46 -13 -112 -83 -125 -132 -22 -82 18 -185 88 -228 28
-17 56 -24 120 -27 l83 -5 0 37 0 36 -66 0 c-80 0 -123 22 -149 76 -38 81 24
184 112 184 20 0 40 11 63 35 l34 35 -65 -1 c-35 0 -78 -5 -95 -10z"/>
<path d="M1220 630 l0 -200 35 0 35 0 0 85 c0 76 2 85 18 85 12 0 45 -33 86
-85 65 -84 67 -85 111 -85 l45 0 -60 78 c-33 42 -60 80 -60 85 0 4 10 7 23 7
47 0 97 59 97 115 0 38 -26 83 -60 100 -21 11 -61 15 -150 15 l-120 0 0 -200z
m254 97 c16 -45 -10 -61 -104 -65 l-80 -4 0 51 0 52 87 -3 c86 -3 88 -4 97
-31z"/>
<path d="M1590 630 l0 -200 145 0 145 0 0 35 0 35 -111 0 -110 0 3 48 3 47 43
3 c39 3 42 5 42 32 0 27 -3 29 -42 32 l-43 3 -3 48 -3 47 78 0 c77 0 80 1 113
35 l34 35 -147 0 -147 0 0 -200z"/>
<path d="M2020 819 c-14 -6 -37 -22 -52 -36 -23 -22 -28 -36 -28 -73 0 -70 40
-98 162 -115 26 -3 57 -15 70 -25 l23 -19 -23 -23 c-32 -33 -129 -33 -164 0
-30 27 -78 30 -78 4 0 -77 148 -128 245 -83 56 26 78 53 78 99 0 73 -25 94
-133 113 -110 19 -138 43 -93 79 36 28 111 27 147 -1 l27 -21 25 23 c23 22 23
23 6 42 -37 43 -148 61 -212 36z"/>
<path d="M2260 795 c29 -30 40 -35 82 -35 l48 0 0 -165 0 -165 35 0 35 0 0
165 0 165 48 0 c42 0 53 5 82 35 l34 35 -199 0 -199 0 34 -35z"/>
<path d="M160 520 c0 -3 10 -21 23 -39 21 -31 35 -37 191 -82 198 -58 206 -62
206 -96 0 -30 -54 -119 -81 -133 -28 -15 -40 -5 -107 90 -54 78 -67 91 -103
100 -23 6 -42 10 -44 8 -1 -2 48 -79 110 -171 l113 -169 122 172 c68 94 121
172 119 174 -9 8 -549 152 -549 146z"/>
<path d="M960 270 l0 -80 45 0 c64 0 100 35 91 88 -7 49 -37 72 -92 72 l-44 0
0 -80z m91 50 c14 -8 19 -21 19 -48 0 -47 -14 -62 -57 -62 l-33 0 0 60 c0 58
1 60 26 60 14 0 34 -5 45 -10z"/>
<path d="M1148 269 c-24 -53 -32 -79 -23 -79 7 0 15 9 18 20 4 16 14 20 46 20
29 0 41 -4 41 -14 0 -16 18 -31 26 -23 3 3 -12 39 -33 80 l-38 76 -37 -80z
m62 -11 c0 -4 -11 -8 -25 -8 -23 0 -24 2 -13 26 11 24 13 25 25 8 7 -10 13
-21 13 -26z"/>
<path d="M1260 340 c0 -5 9 -10 20 -10 18 0 20 -7 20 -70 0 -40 4 -70 10 -70
6 0 10 30 10 70 0 68 1 70 25 70 14 0 25 5 25 10 0 6 -25 10 -55 10 -30 0 -55
-4 -55 -10z"/>
<path d="M1399 274 c-36 -78 -41 -111 -12 -66 11 15 25 22 48 22 23 0 37 -7
48 -22 30 -45 24 -11 -12 66 l-37 80 -35 -80z m61 -16 c0 -4 -11 -8 -25 -8
-28 0 -30 3 -14 32 11 21 12 21 25 3 8 -10 14 -22 14 -27z"/>
<path d="M1610 335 c-18 -21 -3 -51 35 -74 39 -23 42 -32 19 -52 -13 -10 -19
-10 -36 0 -26 16 -39 3 -14 -15 26 -18 51 -18 71 2 23 24 15 56 -22 79 -49 31
-44 61 11 55 11 -1 15 3 12 9 -10 16 -62 13 -76 -4z"/>
<path d="M1745 310 c16 -25 25 -54 25 -80 0 -29 4 -40 15 -40 11 0 15 11 15
41 0 26 8 53 25 76 13 20 22 39 19 42 -4 3 -12 -3 -20 -14 -41 -62 -39 -61
-62 -21 -12 20 -26 36 -32 36 -6 0 1 -18 15 -40z"/>
<path d="M1881 331 c-15 -27 -5 -47 35 -70 19 -11 34 -27 34 -35 0 -20 -28
-28 -52 -15 -27 14 -38 1 -14 -17 25 -17 47 -18 70 -1 27 19 17 58 -21 82 -48
30 -39 78 11 53 14 -8 17 -7 14 4 -3 7 -19 14 -36 16 -22 2 -34 -2 -41 -17z"/>
<path d="M1990 340 c0 -5 11 -10 25 -10 24 0 25 -2 25 -70 0 -40 4 -70 10 -70
6 0 10 30 10 70 0 63 2 70 20 70 11 0 20 5 20 10 0 6 -25 10 -55 10 -30 0 -55
-4 -55 -10z"/>
<path d="M2130 270 l0 -80 45 0 c25 0 45 5 45 10 0 6 -16 10 -35 10 -32 0 -35
2 -35 29 0 27 4 30 38 34 l37 4 -37 1 c-33 2 -38 5 -38 27 0 22 4 25 35 25 19
0 35 5 35 10 0 6 -20 10 -45 10 l-45 0 0 -80z"/>
<path d="M2365 289 l-28 -63 -30 60 -31 59 -17 -75 c-10 -41 -15 -77 -13 -80
9 -8 22 21 29 64 l7 41 28 -55 27 -54 26 49 25 50 12 -47 c7 -27 16 -48 21
-48 12 0 11 2 -10 89 l-17 73 -29 -63z"/>
<path d="M2467 344 c-4 -4 -7 -19 -7 -34 0 -20 8 -31 35 -46 60 -32 35 -76
-28 -49 -13 6 -16 4 -11 -9 8 -22 47 -30 73 -16 35 18 28 64 -14 89 -35 20
-46 46 -22 54 6 2 20 0 31 -5 14 -8 17 -7 14 4 -5 14 -59 24 -71 12z"/>
</g>
</svg>
