<?xml version="1.0" standalone="no"?>
<!DOCTYPE svg PUBLIC "-//W3C//DTD SVG 20010904//EN"
 "http://www.w3.org/TR/2001/REC-SVG-20010904/DTD/svg10.dtd">
<svg version="1.0" xmlns="http://www.w3.org/2000/svg"
 width="1280.000000pt" height="720.000000pt" viewBox="0 0 1280.000000 720.000000"
 preserveAspectRatio="xMidYMid meet">

<g transform="translate(0.000000,720.000000) scale(0.100000,-0.100000)"
fill="#000000" stroke="none">
<path d="M1855 7154 c-18 -9 -90 -93 -177 -207 -439 -574 -936 -1061 -1471
-1443 -237 -170 -238 -197 -5 -365 395 -285 746 -600 1096 -983 149 -162 366
-436 464 -584 52 -77 67 -94 97 -102 83 -23 96 -14 209 139 393 532 859 1005
1402 1422 69 53 161 119 206 148 85 54 108 81 106 131 -1 48 -33 92 -98 134
-98 65 -351 257 -484 368 -393 330 -858 830 -1130 1216 -39 57 -82 110 -95
118 -34 22 -86 26 -120 8z m181 -495 c135 -65 524 -403 766 -665 175 -191 242
-270 361 -429 101 -134 137 -202 137 -258 0 -113 -205 -381 -580 -758 -214
-216 -374 -357 -550 -490 -221 -167 -263 -169 -471 -27 -207 141 -690 591
-905 843 -89 104 -215 272 -250 331 -37 62 -41 120 -13 184 79 183 557 703
953 1037 151 127 313 244 358 259 57 18 119 10 194 -27z"/>
<path d="M1845 6583 c-45 -24 -277 -200 -380 -288 -317 -272 -751 -742 -830
-899 -55 -109 -30 -159 233 -467 242 -283 565 -588 869 -818 159 -120 205
-117 393 25 186 141 302 244 531 473 243 243 437 469 519 606 29 47 32 123 7
172 -26 49 -185 257 -290 379 -275 318 -790 776 -926 822 -46 16 -90 14 -126
-5z m148 -493 c46 -129 96 -265 110 -301 l25 -66 -75 -6 c-41 -3 -76 -7 -78
-9 -1 -2 3 -127 10 -278 6 -151 10 -278 8 -282 -2 -5 -45 -8 -95 -8 l-91 0 7
193 c3 105 9 234 13 285 l6 92 -54 1 c-96 1 -98 -21 19 317 58 166 106 301
108 300 1 -2 40 -109 87 -238z m-414 -537 c91 -58 106 -73 74 -73 -34 0 -183
-58 -217 -84 -19 -14 -44 -41 -55 -60 -20 -32 -21 -37 -7 -70 32 -78 200 -136
449 -156 282 -23 630 59 682 161 24 46 18 69 -30 115 -57 55 -107 71 -170 55
-26 -7 -50 -9 -54 -6 -13 13 -57 155 -48 155 5 0 50 -11 101 -24 50 -14 127
-33 171 -42 77 -17 79 -18 48 -27 -18 -6 -33 -13 -33 -16 1 -3 24 -22 52 -41
208 -140 75 -309 -302 -384 -330 -66 -720 -32 -977 84 -81 37 -128 72 -154
114 -23 37 -25 96 -4 135 20 41 93 102 167 141 60 32 181 79 205 80 6 0 52
-26 102 -57z m425 -585 c8 -40 27 -548 21 -558 -6 -10 -195 -14 -230 -4 -19 5
-20 10 -13 137 3 73 10 203 13 290 l7 157 99 0 c94 0 99 -1 103 -22z"/>
<path d="M4280 5275 l0 -1405 385 0 385 0 0 1405 0 1405 -385 0 -385 0 0
-1405z"/>
<path d="M5470 5275 l0 -1405 1065 0 1065 0 0 270 0 270 -680 0 -680 0 0 300
0 300 625 0 625 0 0 270 0 270 -625 0 -625 0 0 295 0 295 680 0 680 0 0 270 0
270 -1065 0 -1065 0 0 -1405z"/>
<path d="M8040 5275 l0 -1405 1070 0 1070 0 0 270 0 270 -680 0 -680 0 0 300
0 300 625 0 625 0 0 270 0 270 -625 0 -625 0 0 295 0 295 680 0 680 0 0 270 0
270 -1070 0 -1070 0 0 -1405z"/>
<path d="M10620 5275 l0 -1405 1070 0 1070 0 0 270 0 270 -680 0 -680 0 0 300
0 300 625 0 625 0 0 270 0 270 -625 0 -625 0 0 295 0 295 680 0 680 0 0 270 0
270 -1070 0 -1070 0 0 -1405z"/>
<path d="M2468 3833 c-53 -34 -71 -103 -44 -168 29 -68 139 -89 197 -37 53 47
56 140 5 190 -33 33 -118 41 -158 15z m112 -18 c37 -19 50 -43 50 -94 0 -51
-32 -90 -81 -97 -31 -5 -42 -1 -70 24 -29 26 -34 37 -34 75 0 47 21 82 60 98
30 12 43 11 75 -6z"/>
<path d="M2490 3726 c0 -37 4 -66 10 -66 6 0 10 11 10 24 0 37 17 40 35 6 8
-16 22 -30 31 -30 13 0 13 3 0 29 -14 26 -14 30 0 35 10 4 14 16 12 33 -3 26
-7 28 -50 31 l-48 3 0 -65z m74 35 c8 -13 -21 -34 -39 -27 -25 9 -18 36 9 36
14 0 27 -4 30 -9z"/>
<path d="M1650 2868 c-30 -5 -58 -13 -62 -16 -5 -5 -68 -290 -68 -307 0 -1
-48 -5 -107 -8 -128 -6 -218 -32 -285 -82 -132 -97 -197 -317 -134 -450 42
-89 107 -127 213 -127 56 0 88 10 166 50 4 2 7 -8 7 -22 0 -24 4 -26 39 -26
52 0 91 15 91 36 0 27 98 475 156 713 55 228 60 252 47 250 -5 -1 -33 -6 -63
-11z m-164 -431 c4 -11 -62 -335 -81 -398 -8 -25 -81 -60 -138 -65 -39 -4 -61
-1 -87 14 -136 73 -85 338 82 423 70 36 214 52 224 26z"/>
<path d="M8485 2866 l-60 -12 -12 -64 c-36 -187 -175 -811 -199 -892 -5 -16 2
-18 60 -18 36 0 67 4 70 9 3 5 22 85 41 177 19 93 43 203 53 244 l17 75 59 30
c84 42 157 43 193 0 23 -26 25 -35 20 -90 -5 -50 -73 -365 -92 -426 -6 -17 0
-19 62 -19 l69 0 47 223 c54 255 59 326 24 378 -33 50 -110 74 -191 60 -33 -6
-83 -22 -112 -36 -28 -14 -53 -25 -56 -25 -4 0 71 329 88 383 6 19 5 19 -81 3z"/>
<path d="M10630 2866 l-55 -11 -13 -75 c-23 -135 -73 -380 -128 -630 -30 -135
-54 -251 -54 -257 0 -9 20 -13 65 -13 59 0 65 2 70 23 2 12 25 121 49 242 52
255 97 466 131 617 14 59 25 109 25 112 0 8 -25 6 -90 -8z"/>
<path d="M4536 2831 c-39 -6 -40 -7 -53 -65 -7 -33 -12 -61 -9 -63 2 -2 33 -1
70 3 66 7 66 7 75 43 26 97 27 91 -10 90 -19 -1 -52 -5 -73 -8z"/>
<path d="M603 2758 c-5 -7 -34 -58 -63 -113 -29 -55 -133 -245 -232 -422 -98
-177 -178 -327 -178 -333 0 -6 27 -10 65 -10 l65 0 70 140 70 140 154 0 c85 0
157 -3 160 -8 2 -4 7 -57 11 -117 9 -166 3 -155 86 -155 l71 0 -6 43 c-11 82
-55 514 -66 657 -17 211 -5 190 -109 190 -59 0 -92 -4 -98 -12z m92 -264 c8
-99 15 -194 15 -211 l0 -33 -131 0 c-72 0 -129 4 -127 8 16 40 221 422 225
419 2 -3 10 -85 18 -183z"/>
<path d="M6537 2763 c-2 -5 -7 -21 -11 -38 -4 -16 -9 -38 -12 -48 -5 -17 2
-17 125 -11 113 6 131 5 131 -8 0 -23 -155 -691 -176 -761 -5 -16 1 -18 67
-15 l73 3 8 35 c4 19 39 181 78 360 39 179 76 340 81 358 l11 34 119 -4 120
-3 14 49 c8 27 15 51 15 53 0 7 -639 2 -643 -4z"/>
<path d="M3389 2537 c-25 -7 -62 -23 -83 -35 -48 -28 -50 -28 -42 9 l6 31 -48
-7 c-79 -11 -92 -16 -97 -39 -2 -11 -14 -73 -25 -136 -12 -63 -39 -191 -61
-285 -21 -93 -39 -175 -39 -182 0 -9 19 -13 64 -13 53 0 66 3 70 18 2 9 26
122 52 250 l48 234 41 23 c87 51 188 51 221 -1 23 -35 15 -111 -35 -326 -22
-98 -41 -182 -41 -188 0 -7 23 -10 66 -8 l66 3 45 215 c24 118 45 243 45 276
2 71 -20 118 -68 146 -40 24 -129 31 -185 15z"/>
<path d="M4053 2539 c-113 -22 -196 -86 -248 -192 -142 -292 42 -548 333 -462
50 15 51 17 67 71 9 31 14 58 11 61 -3 3 -18 -4 -34 -16 -93 -66 -230 -34
-277 65 -26 54 -17 172 17 239 48 93 124 145 212 145 53 0 93 -14 123 -42 l22
-21 11 29 c25 66 24 81 -8 98 -28 14 -140 37 -172 35 -8 -1 -34 -5 -57 -10z"/>
<path d="M5000 2537 c-25 -7 -67 -25 -93 -39 -49 -28 -53 -26 -37 16 11 30 11
30 -75 15 l-61 -10 -17 -104 c-16 -93 -98 -472 -113 -517 -5 -16 2 -18 60 -18
36 0 67 4 70 8 3 5 28 116 55 248 37 174 56 243 68 252 68 51 164 71 215 43
29 -15 48 -50 48 -87 0 -23 -50 -263 -84 -406 l-14 -58 67 0 68 0 43 208 c52
248 59 332 32 381 -35 64 -139 94 -232 68z"/>
<path d="M7287 2540 c-108 -19 -212 -110 -258 -227 -33 -84 -34 -249 -2 -309
52 -98 147 -140 292 -131 52 3 103 12 130 24 40 17 45 24 62 78 10 33 17 61
15 62 -2 2 -27 -11 -56 -29 -51 -31 -58 -33 -151 -33 -83 0 -102 3 -125 21
-45 33 -63 66 -70 126 -6 56 -6 58 20 68 16 6 117 10 236 10 l209 0 7 56 c13
105 -16 202 -73 242 -56 39 -155 56 -236 42z m152 -106 c34 -28 53 -82 44
-125 l-5 -29 -169 0 -168 0 15 36 c40 95 106 144 196 144 46 0 62 -5 87 -26z"/>
<path d="M7973 2540 c-179 -37 -293 -186 -297 -385 -1 -69 3 -88 27 -137 48
-98 132 -148 247 -148 31 0 80 7 108 15 48 15 52 18 62 58 6 23 13 50 16 60 7
22 5 22 -51 -9 -117 -66 -247 -11 -274 115 -26 120 44 267 152 323 59 29 151
22 201 -15 26 -20 37 -24 40 -15 29 92 29 91 10 105 -40 29 -171 47 -241 33z"/>
<path d="M9330 2534 c-30 -8 -72 -26 -93 -40 l-38 -25 7 37 7 36 -44 -6 c-104
-16 -94 -6 -113 -119 -16 -87 -89 -426 -111 -510 l-7 -28 68 3 69 3 50 240
c28 132 54 246 59 253 15 25 109 64 157 65 93 1 128 -47 110 -153 -11 -60 -76
-352 -87 -393 -5 -16 1 -18 63 -15 l68 3 43 200 c52 240 59 347 26 392 -46 62
-137 84 -234 57z"/>
<path d="M9981 2539 c-172 -34 -281 -196 -281 -417 0 -122 29 -179 115 -225
33 -18 57 -22 140 -22 89 0 106 3 151 27 97 51 160 147 190 290 22 100 13 188
-24 247 -48 79 -177 123 -291 100z m130 -94 c67 -35 86 -125 54 -250 -43 -165
-107 -235 -215 -235 -43 0 -56 5 -80 28 -40 41 -52 94 -40 180 13 95 43 170
87 222 58 67 130 88 194 55z"/>
<path d="M10980 2537 c-164 -36 -270 -198 -270 -415 0 -122 29 -179 115 -225
33 -18 57 -22 140 -22 89 0 106 3 151 27 96 50 160 147 189 285 25 117 14 204
-34 272 -47 65 -182 101 -291 78z m148 -97 c63 -39 77 -119 43 -253 -42 -160
-103 -227 -211 -227 -43 0 -56 5 -80 28 -41 41 -54 98 -41 183 34 219 167 343
289 269z"/>
<path d="M4487 2530 c-27 -5 -51 -11 -55 -14 -3 -3 -22 -90 -43 -192 -21 -103
-52 -243 -69 -311 -16 -69 -30 -126 -30 -129 0 -2 31 -4 70 -4 64 0 70 2 74
23 3 12 21 103 41 202 20 99 50 236 66 304 16 68 29 125 29 127 0 5 -25 3 -83
-6z"/>
<path d="M12212 2533 c-52 -4 -53 -5 -48 -31 4 -15 26 -159 51 -321 l46 -293
-27 -47 c-15 -25 -55 -89 -89 -141 -33 -52 -64 -101 -69 -107 -5 -10 10 -13
63 -13 l71 0 26 53 c42 82 172 307 352 607 90 151 166 278 169 283 2 4 -25 7
-61 7 l-64 0 -37 -67 c-169 -309 -230 -411 -236 -395 -3 9 -16 109 -28 222
-27 252 -27 250 -49 248 -9 -1 -41 -3 -70 -5z"/>
<path d="M1730 2523 c0 -5 13 -118 29 -253 16 -135 33 -278 37 -317 l7 -73 78
0 78 0 24 43 c13 23 61 110 107 192 46 83 116 207 156 277 41 70 74 130 74
133 0 3 -28 5 -63 5 l-62 0 -84 -167 c-100 -203 -192 -376 -196 -371 -4 3 -45
474 -45 513 0 24 -2 25 -70 25 -38 0 -70 -3 -70 -7z"/>
<path d="M2605 2516 c-122 -29 -211 -98 -263 -203 -82 -163 -63 -320 46 -398
38 -26 54 -30 122 -33 76 -4 95 1 183 46 4 2 7 -8 7 -23 0 -26 1 -26 62 -23
l61 3 23 120 c18 99 81 386 109 498 l7 27 -153 -1 c-85 0 -177 -6 -204 -13z
m205 -93 c-1 -10 -20 -103 -43 -208 l-43 -189 -53 -28 c-149 -78 -278 21 -241
185 37 165 145 255 308 256 62 1 72 -1 72 -16z"/>
<path d="M5682 2519 c-127 -25 -228 -105 -285 -227 -25 -54 -32 -83 -35 -153
-3 -53 0 -101 8 -124 17 -53 73 -111 126 -131 57 -22 153 -15 213 15 24 12 45
20 48 17 10 -9 -19 -110 -45 -159 -34 -64 -91 -98 -164 -99 -76 -2 -113 9
-164 48 -25 19 -48 33 -52 30 -4 -2 -16 -21 -27 -41 l-19 -37 26 -23 c49 -42
134 -67 229 -67 207 -1 286 75 343 326 14 61 51 223 81 359 31 137 59 255 62
263 4 12 -20 14 -148 13 -85 -1 -173 -5 -197 -10z m195 -98 c-2 -10 -24 -104
-47 -208 l-43 -190 -40 -26 c-78 -51 -172 -45 -222 14 -32 39 -39 67 -33 143
12 138 99 247 223 277 17 4 61 7 99 8 62 1 68 -1 63 -18z"/>
<path d="M11750 2523 c-157 -26 -269 -121 -320 -273 -29 -85 -30 -190 -3 -250
23 -53 77 -103 129 -120 50 -17 150 -8 201 19 23 11 45 21 48 21 22 0 -30
-154 -67 -196 -42 -47 -80 -65 -142 -66 -74 -2 -111 9 -163 49 l-46 35 -18
-23 c-46 -59 -28 -89 78 -129 73 -28 206 -30 280 -6 130 43 163 107 243 476
54 243 90 398 106 453 5 16 -6 17 -148 16 -84 -1 -164 -4 -178 -6z m176 -100
c-2 -10 -23 -101 -46 -203 -37 -164 -45 -188 -70 -212 -69 -64 -178 -61 -240
6 -36 39 -41 148 -10 229 50 133 146 195 303 196 60 1 68 -1 63 -16z"/>
<path d="M4975 1308 c-72 -25 -111 -93 -141 -241 l-17 -88 -43 2 c-52 3 -60
-3 -69 -53 l-7 -38 52 0 c44 0 51 -2 46 -17 -8 -27 -116 -523 -116 -534 0 -5
29 -9 64 -9 71 0 69 -2 80 75 4 22 27 140 53 263 l47 222 58 0 c62 0 61 -1 82
68 7 21 5 22 -52 22 -32 0 -61 2 -64 5 -3 4 5 47 18 98 29 114 52 140 123 136
l46 -3 9 43 c7 33 6 45 -5 52 -19 12 -127 10 -164 -3z"/>
<path d="M10928 1283 c-40 -4 -39 -2 -64 -107 l-7 -28 64 7 c74 8 84 15 92 54
3 16 9 40 13 55 7 28 2 29 -98 19z"/>
<path d="M6725 1208 c-2 -7 -25 -107 -50 -223 -25 -116 -68 -306 -95 -423 -28
-117 -50 -217 -50 -222 0 -6 31 -10 69 -10 80 0 67 -19 106 169 13 64 31 149
40 189 l17 72 209 0 c196 0 210 -1 205 -17 -3 -10 -23 -94 -45 -188 -21 -93
-42 -182 -46 -197 l-7 -28 63 0 c35 0 69 4 75 8 5 4 23 68 38 142 25 125 151
682 162 723 5 16 -1 18 -67 15 l-72 -3 -33 -155 c-19 -85 -36 -165 -39 -177
-5 -23 -6 -23 -210 -23 -170 0 -205 2 -205 14 0 8 12 63 26 123 14 59 31 134
39 166 l13 57 -69 0 c-47 0 -71 -4 -74 -12z"/>
<path d="M11235 1161 c-59 -16 -59 -16 -68 -61 -5 -25 -13 -62 -18 -82 -10
-37 -11 -38 -58 -38 -46 0 -49 -1 -55 -31 -11 -56 -9 -59 39 -59 42 0 45 -2
40 -22 -3 -13 -21 -90 -41 -173 -75 -310 -58 -365 111 -365 l76 0 15 35 c24
59 20 65 -35 58 -41 -5 -52 -2 -70 16 -26 26 -28 8 32 268 l42 183 68 0 c73 0
70 -2 91 68 7 21 5 22 -63 22 -51 0 -71 4 -71 13 0 7 9 45 20 85 21 77 25 103
13 101 -5 -1 -35 -9 -68 -18z"/>
<path d="M5321 990 c-157 -33 -271 -206 -271 -413 0 -91 16 -142 60 -188 91
-96 311 -89 418 14 70 67 119 185 129 307 10 131 -26 207 -117 252 -62 31
-151 42 -219 28z m172 -118 c27 -27 32 -40 35 -94 7 -109 -36 -246 -97 -311
-36 -40 -73 -57 -121 -57 -91 0 -133 51 -132 159 2 114 34 209 95 277 42 49
81 65 140 61 38 -3 56 -11 80 -35z"/>
<path d="M6084 986 c-16 -7 -49 -35 -72 -62 l-41 -49 14 55 c8 30 15 57 15 59
0 2 -21 0 -47 -3 -93 -13 -103 -17 -103 -38 0 -30 -45 -248 -91 -437 -21 -90
-39 -167 -39 -173 0 -5 30 -8 67 -6 65 3 67 4 74 33 4 17 21 98 39 180 41 187
61 242 105 285 27 26 44 34 73 34 20 0 44 -3 53 -7 12 -6 21 6 41 58 25 62 26
66 8 75 -25 13 -59 12 -96 -4z"/>
<path d="M8534 986 c-28 -7 -68 -22 -88 -34 -48 -28 -50 -28 -42 9 l6 32 -37
-7 c-21 -3 -47 -6 -58 -6 -11 0 -26 -4 -33 -8 -7 -5 -30 -97 -52 -206 -22
-108 -53 -248 -69 -311 -16 -63 -26 -117 -23 -120 8 -8 105 -6 120 3 7 5 28
82 46 173 69 332 65 318 106 344 78 49 150 53 191 9 20 -21 21 -30 16 -101 -3
-43 -22 -145 -42 -228 -20 -82 -38 -162 -42 -177 l-5 -28 66 0 c60 0 66 2 71
23 28 122 76 362 81 402 8 65 23 88 76 112 95 44 175 34 194 -26 13 -41 6 -93
-47 -312 -21 -91 -39 -174 -39 -183 0 -14 9 -17 62 -14 l63 3 47 220 c55 253
61 333 31 373 -36 48 -81 67 -156 66 -58 -1 -80 -7 -145 -40 -42 -22 -80 -40
-83 -42 -3 -1 -11 9 -17 23 -13 29 -82 65 -122 64 -14 0 -48 -6 -76 -13z"/>
<path d="M10349 986 c-25 -7 -62 -22 -83 -34 -48 -28 -50 -28 -42 8 4 21 2 30
-8 30 -16 0 -118 -19 -122 -23 -2 -1 -17 -75 -34 -162 -17 -88 -47 -226 -66
-306 -19 -81 -34 -152 -34 -158 0 -7 24 -11 65 -11 59 0 65 2 70 23 3 12 23
110 46 217 57 275 53 263 96 287 61 34 125 47 167 33 79 -26 83 -74 26 -327
-22 -98 -43 -191 -47 -206 l-6 -28 68 3 68 3 49 245 c57 280 57 313 4 366 -51
51 -126 65 -217 40z"/>
<path d="M7605 982 l-61 -3 -47 -217 c-52 -240 -58 -309 -27 -360 56 -91 206
-106 323 -32 l46 29 -6 -35 -6 -35 64 3 63 3 32 155 c18 85 50 230 72 323 21
92 37 168 36 170 -1 1 -31 1 -66 -1 l-64 -4 -38 -176 c-69 -328 -62 -307 -106
-336 -120 -79 -240 -47 -240 65 0 30 53 281 84 396 8 29 11 54 8 55 -4 2 -34
2 -67 0z"/>
<path d="M10877 980 c-27 -5 -51 -11 -55 -14 -3 -3 -22 -88 -42 -188 -21 -101
-52 -241 -69 -311 -17 -71 -31 -130 -31 -133 0 -2 29 -4 64 -4 73 0 81 6 91
70 6 44 109 523 121 568 7 25 3 25 -79 12z"/>
<path d="M11478 983 c-27 -2 -48 -5 -48 -6 0 -1 22 -146 50 -321 l49 -319 -36
-61 c-21 -34 -63 -101 -95 -151 l-58 -90 67 -3 c37 -2 69 1 71 6 10 31 464
804 538 917 l16 25 -68 0 -69 0 -47 -93 c-27 -50 -86 -159 -132 -241 -70 -124
-86 -146 -90 -125 -3 13 -15 110 -26 214 -30 270 -27 255 -53 253 -12 -1 -43
-3 -69 -5z"/>
<path d="M9550 964 c-117 -31 -204 -106 -256 -218 -73 -160 -47 -319 63 -387
33 -21 51 -24 128 -24 75 0 96 4 128 23 49 28 55 28 49 -4 -5 -25 -4 -25 59
-22 l63 3 27 140 c15 77 46 220 68 318 23 99 41 181 41 183 0 12 -320 1 -370
-12z m197 -70 l29 -6 -45 -206 -46 -206 -54 -28 c-179 -94 -308 64 -214 263
51 108 122 162 231 178 31 5 60 9 63 10 4 0 20 -2 36 -5z"/>
</g>
</svg>
