<?xml version="1.0" standalone="no"?>
<!DOCTYPE svg PUBLIC "-//W3C//DTD SVG 20010904//EN"
 "http://www.w3.org/TR/2001/REC-SVG-20010904/DTD/svg10.dtd">
<svg version="1.0" xmlns="http://www.w3.org/2000/svg"
 width="512.000000pt" height="512.000000pt" viewBox="0 0 512.000000 512.000000"
 preserveAspectRatio="xMidYMid meet">

<g transform="translate(0.000000,512.000000) scale(0.100000,-0.100000)"
fill="#000000" stroke="none">
<path d="M0 2560 l0 -2560 2560 0 2560 0 0 2560 0 2560 -2560 0 -2560 0 0
-2560z m4000 0 l0 -2240 -1440 0 -1440 0 0 375 0 376 -25 24 -24 25 -376 0
-375 0 0 1840 0 1840 1840 0 1840 0 0 -2240z m703 1527 c31 -85 57 -157 57
-160 0 -4 -54 -7 -120 -7 -66 0 -120 3 -120 7 0 13 115 313 120 313 3 0 31
-69 63 -153z m-3743 -3387 c0 -143 -1 -260 -3 -260 -1 0 -119 117 -262 260
l-260 260 263 0 262 0 0 -260z m3838 121 c-3 -152 -9 -168 -72 -215 -39 -29
-133 -29 -172 0 -63 47 -69 63 -72 215 l-4 139 162 0 162 0 -4 -139z"/>
<path d="M2745 4615 c-24 -23 -25 -29 -25 -160 l0 -135 -215 0 c-216 0 -216 0
-240 -25 l-25 -24 0 -496 0 -495 -160 0 -160 0 0 135 c0 131 -1 137 -25 160
l-24 25 -671 0 -671 0 -24 -25 -25 -24 0 -991 0 -991 26 -24 27 -25 669 0 669
0 24 25 c24 23 25 29 25 160 l0 135 160 0 160 0 0 -495 0 -496 26 -24 c27 -25
28 -25 240 -25 l214 0 0 -135 c0 -131 1 -137 25 -160 l24 -25 511 0 511 0 24
25 25 24 0 351 0 351 -25 24 -24 25 -511 0 -511 0 -24 -25 c-24 -23 -25 -29
-25 -160 l0 -135 -160 0 -160 0 0 760 0 760 160 0 160 0 0 -135 c0 -131 1
-137 25 -160 l24 -25 511 0 511 0 24 25 25 24 0 351 0 351 -25 24 -24 25 -511
0 -511 0 -24 -25 c-24 -23 -25 -29 -25 -160 l0 -135 -160 0 -160 0 0 760 0
760 160 0 160 0 0 -135 c0 -131 1 -137 25 -160 l24 -25 511 0 511 0 24 25 25
24 0 351 0 351 -25 24 -24 25 -511 0 -511 0 -24 -25z m935 -375 l0 -240 -400
0 -400 0 0 240 0 240 400 0 400 0 0 -240z m-1920 -1040 l0 -240 -560 0 -560 0
0 240 0 240 560 0 560 0 0 -240z m480 -320 l0 -240 -160 0 -160 0 0 240 0 240
160 0 160 0 0 -240z m-480 -320 l0 -240 -560 0 -560 0 0 240 0 240 560 0 560
0 0 -240z m1920 0 l0 -240 -400 0 -400 0 0 240 0 240 400 0 400 0 0 -240z
m-1440 -320 l0 -240 -160 0 -160 0 0 240 0 240 160 0 160 0 0 -240z m-480
-320 l0 -240 -560 0 -560 0 0 240 0 240 560 0 560 0 0 -240z m1920 -1040 l0
-240 -400 0 -400 0 0 240 0 240 400 0 400 0 0 -240z"/>
<path d="M3040 4240 l0 -80 80 0 80 0 0 80 0 80 -80 0 -80 0 0 -80z"/>
<path d="M3360 4240 l0 -80 80 0 80 0 0 80 0 80 -80 0 -80 0 0 -80z"/>
<path d="M800 3200 l0 -80 240 0 240 0 0 80 0 80 -240 0 -240 0 0 -80z"/>
<path d="M1440 3200 l0 -80 80 0 80 0 0 80 0 80 -80 0 -80 0 0 -80z"/>
<path d="M800 2560 l0 -80 240 0 240 0 0 80 0 80 -240 0 -240 0 0 -80z"/>
<path d="M1440 2560 l0 -80 80 0 80 0 0 80 0 80 -80 0 -80 0 0 -80z"/>
<path d="M3040 2560 l0 -80 80 0 80 0 0 80 0 80 -80 0 -80 0 0 -80z"/>
<path d="M3360 2560 l0 -80 80 0 80 0 0 80 0 80 -80 0 -80 0 0 -80z"/>
<path d="M800 1920 l0 -80 240 0 240 0 0 80 0 80 -240 0 -240 0 0 -80z"/>
<path d="M1440 1920 l0 -80 80 0 80 0 0 80 0 80 -80 0 -80 0 0 -80z"/>
<path d="M3040 880 l0 -80 80 0 80 0 0 80 0 80 -80 0 -80 0 0 -80z"/>
<path d="M3360 880 l0 -80 80 0 80 0 0 80 0 80 -80 0 -80 0 0 -80z"/>
</g>
</svg>
